General
Complete name                            : The Little Mermaid (SD 480p).m4v
Format                                   : MPEG-4
Format profile                           : Base Media / Version 2
Codec ID                                 : mp42
File size                                : 1.51 GiB
Duration                                 : 1h 19mn
Overall bit rate mode                    : Variable
Overall bit rate                         : 2 724 Kbps
Movie name                               : The Little Mermaid
Performer                                : Rene Auberjonois, Christopher Daniel Barnes, Jodi Benson, Pat Carroll, Paddi Edwards, Buddy Hackett, Jason Marin, Kenneth Mars, Edie McClurg, Will Ryan, Ben Wright, Samuel E. Wright
Genre                                    : Fantasy, Animation, Drama, Comedy, Science Fiction, Romance, Family
Recorded date                            : 1989-11-15
Encoded date                             : UTC 2013-01-03 04:10:39
Tagged date                              : UTC 2013-01-03 05:22:22
Writing application                      : HandBrake 5127svn 2013010201
Cover                                    : Yes
desc                                     : This colorful adventure tells the story of an impetuous mermaid princess named Ariel who falls in love with the very human Prince Eric and puts everything on the line for the chance to be with him. Memorable songs and characters -- including the villainous sea witch Ursula.

Video #1
ID                                       : 1
Format                                   : AVC
Format/Info                              : Advanced Video Codec
Format profile                           : High@L3.1
Format settings, CABAC                   : Yes
Format settings, ReFrames                : 4 frames
Codec ID                                 : avc1
Codec ID/Info                            : Advanced Video Coding
Duration                                 : 1h 19mn
Bit rate mode                            : Variable
Bit rate                                 : 2 096 Kbps
Width                                    : 720 pixels
Height                                   : 574 pixels
Display aspect ratio                     : 16:9
Frame rate mode                          : Variable
Frame rate                               : 25.000 fps
Minimum frame rate                       : 12.524 fps
Maximum frame rate                       : 30.000 fps
Color space                              : YUV
Chroma subsampling                       : 4:2:0
Bit depth                                : 8 bits
Scan type                                : Progressive
Bits/(Pixel*Frame)                       : 0.203
Stream size                              : 1.16 GiB (77%)
Writing library                          : x264 core 128
Encoding settings                        : cabac=1 / ref=4 / deblock=1:0:0 / analyse=0x3:0x133 / me=umh / subme=10 / psy=1 / psy_rd=1.00:0.15 / mixed_ref=1 / me_range=32 / chroma_me=1 / trellis=2 / 8x8dct=1 / cqm=0 / deadzone=21,11 / fast_pskip=1 / chroma_qp_offset=-3 / threads=12 / lookahead_threads=2 / sliced_threads=0 / nr=0 / decimate=1 / interlaced=0 / bluray_compat=0 / constrained_intra=0 / bframes=4 / b_pyramid=2 / b_adapt=2 / b_bias=0 / direct=3 / weightb=1 / open_gop=0 / weightp=2 / keyint=300 / keyint_min=30 / scenecut=40 / intra_refresh=0 / rc_lookahead=60 / rc=crf / mbtree=1 / crf=18.0 / qcomp=0.60 / qpmin=4 / qpmax=69 / qpstep=4 / ip_ratio=1.40 / aq=1:1.00
Language                                 : English
Encoded date                             : UTC 2013-01-03 04:10:39
Tagged date                              : UTC 2013-01-03 05:12:23
Color primaries                          : BT.601 PAL
Transfer characteristics                 : BT.709
Matrix coefficients                      : BT.601

Audio #1
ID                                       : 2
Format                                   : AAC
Format/Info                              : Advanced Audio Codec
Format profile                           : LC
Codec ID                                 : 40
Duration                                 : 1h 19mn
Bit rate mode                            : Variable
Bit rate                                 : 164 Kbps
Maximum bit rate                         : 254 Kbps
Channel(s)                               : 2 channels
Channel positions                        : Front: L R
Sampling rate                            : 48.0 KHz
Compression mode                         : Lossy
Delay relative to video                  : 80ms
Stream size                              : 93.2 MiB (6%)
Language                                 : English
Encoded date                             : UTC 2013-01-03 04:10:39
Tagged date                              : UTC 2013-01-03 05:12:23

Audio #2
ID                                       : 3
Format                                   : AC-3
Format/Info                              : Audio Coding 3
Mode extension                           : CM (complete main)
Format settings, Endianness              : Big
Codec ID                                 : ac-3
Duration                                 : 1h 19mn
Bit rate mode                            : Constant
Bit rate                                 : 448 Kbps
Channel(s)                               : 6 channels
Channel positions                        : Front: L C R, Side: L R, LFE
Sampling rate                            : 48.0 KHz
Bit depth                                : 16 bits
Compression mode                         : Lossy
Delay relative to video                  : 80ms
Stream size                              : 254 MiB (16%)
Language                                 : English
Encoded date                             : UTC 2013-01-03 04:10:39
Tagged date                              : UTC 2013-01-03 05:12:23